<svg xmlns="http://www.w3.org/2000/svg" width="69.999" height="70" viewBox="0 0 69.999 70">
  <path id="finger" d="M35.016,33.627a3.281,3.281,0,0,0-3.281,3.281,99.972,99.972,0,0,1-3.787,28.923A3.281,3.281,0,1,0,34.265,67.6a105.816,105.816,0,0,0,4.03-30.7,3.279,3.279,0,0,0-3.28-3.281ZM34.9,22.453a13.675,13.675,0,0,0-14.1,13.821,89.7,89.7,0,0,1-1.828,19.489,3.281,3.281,0,1,0,6.426,1.329,96.254,96.254,0,0,0,1.965-20.921A7.124,7.124,0,0,1,34.8,29.016,7.913,7.913,0,0,1,42.679,36.6a109.915,109.915,0,0,1-1.451,19.626A3.28,3.28,0,1,0,47.7,57.293a116.621,116.621,0,0,0,1.541-20.8A14.525,14.525,0,0,0,34.9,22.453Zm-15.133-2.7a3.284,3.284,0,0,0-4.616.476,23.713,23.713,0,0,0-5.3,15.312A79.4,79.4,0,0,1,8.606,50.857a3.282,3.282,0,0,0,6.46,1.166,85.993,85.993,0,0,0,1.348-16.588,16.9,16.9,0,0,1,3.828-11.07,3.283,3.283,0,0,0-.477-4.616Zm14.967-8.522a24.438,24.438,0,0,0-6.259.679,3.282,3.282,0,0,0,1.512,6.387,19.622,19.622,0,0,1,4.648-.5c10.313.154,18.83,8.408,18.988,18.4a120.458,120.458,0,0,1-.763,15.535,3.281,3.281,0,1,0,6.52.748,127.017,127.017,0,0,0,.805-16.386c-.213-13.5-11.631-24.654-25.452-24.86Zm34.463,16.6a3.281,3.281,0,1,0-6.408,1.414,34.093,34.093,0,0,1,.643,8.422,3.28,3.28,0,0,0,3.254,3.309h.027a3.281,3.281,0,0,0,3.281-3.254A40.628,40.628,0,0,0,69.194,27.832Zm-5.485-12.4A36.368,36.368,0,0,0,34.563,0,34.245,34.245,0,0,0,9.633,9.972,32.606,32.606,0,0,0,.019,33.722L0,36.657a3.279,3.279,0,0,0,3.183,3.376c.031,0,.066,0,.1,0A3.282,3.282,0,0,0,6.561,36.85l.022-3.232a26.082,26.082,0,0,1,7.695-19A27.707,27.707,0,0,1,34.468,6.567,29.785,29.785,0,0,1,58.341,19.2a3.279,3.279,0,1,0,5.368-3.769Z" transform="translate(-0.001)" fill="#c41414"/>
</svg>
